<mxfile host="app.diagrams.net" agent="Mozilla/5.0 (Windows NT 10.0; Win64; x64) AppleWebKit/537.36 (KHTML, like Gecko) Chrome/130.0.0.0 Safari/537.36" version="24.8.3">
  <diagram name="Page-1" id="SiRB-Dec5lN9ryOhnOt4">
    <mxGraphModel dx="2309" dy="1427" grid="0" gridSize="4" guides="1" tooltips="1" connect="1" arrows="1" fold="1" page="0" pageScale="1" pageWidth="850" pageHeight="1100" background="#000000" math="0" shadow="0">
      <root>
        <mxCell id="0" />
        <mxCell id="1" parent="0" />
        <mxCell id="rgg1BvajTvkb6stmxqCp-159" style="edgeStyle=orthogonalEdgeStyle;rounded=0;orthogonalLoop=1;jettySize=auto;html=1;entryX=0.5;entryY=0;entryDx=0;entryDy=0;labelBackgroundColor=none;fontColor=default;strokeColor=#23445D;" edge="1" parent="1" source="rgg1BvajTvkb6stmxqCp-10" target="rgg1BvajTvkb6stmxqCp-158">
          <mxGeometry relative="1" as="geometry" />
        </mxCell>
        <mxCell id="rgg1BvajTvkb6stmxqCp-10" value="kullanıcılar" style="rounded=0;whiteSpace=wrap;html=1;strokeWidth=1;perimeterSpacing=0;fontSize=19;labelBackgroundColor=none;fillColor=#182E3E;strokeColor=#FFFFFF;fontColor=#FFFFFF;" vertex="1" parent="1">
          <mxGeometry x="537" y="64" width="110" height="27" as="geometry" />
        </mxCell>
        <mxCell id="rgg1BvajTvkb6stmxqCp-18" style="edgeStyle=orthogonalEdgeStyle;rounded=0;orthogonalLoop=1;jettySize=auto;html=1;entryX=0;entryY=0.5;entryDx=0;entryDy=0;fontSize=10;spacing=1;verticalAlign=middle;fontFamily=Helvetica;strokeWidth=1;endSize=1;labelBackgroundColor=none;fontColor=default;strokeColor=#23445D;" edge="1" parent="1" source="rgg1BvajTvkb6stmxqCp-11" target="rgg1BvajTvkb6stmxqCp-10">
          <mxGeometry relative="1" as="geometry" />
        </mxCell>
        <mxCell id="rgg1BvajTvkb6stmxqCp-11" value="&lt;font style=&quot;font-size: 18px;&quot;&gt;KullanıcıID&lt;/font&gt;" style="ellipse;whiteSpace=wrap;html=1;verticalAlign=bottom;labelBackgroundColor=none;fontSize=18;fillColor=#182E3E;strokeColor=#FFFFFF;fontColor=#FFFFFF;" vertex="1" parent="1">
          <mxGeometry x="368" y="31" width="110" height="27" as="geometry" />
        </mxCell>
        <mxCell id="rgg1BvajTvkb6stmxqCp-21" style="edgeStyle=orthogonalEdgeStyle;rounded=0;orthogonalLoop=1;jettySize=auto;html=1;entryX=0;entryY=1;entryDx=0;entryDy=0;strokeWidth=1;align=center;verticalAlign=middle;spacing=1;fontFamily=Helvetica;fontSize=10;fontColor=default;labelBackgroundColor=none;endArrow=classic;endSize=1;strokeColor=#23445D;" edge="1" parent="1" source="rgg1BvajTvkb6stmxqCp-12" target="rgg1BvajTvkb6stmxqCp-10">
          <mxGeometry relative="1" as="geometry" />
        </mxCell>
        <mxCell id="rgg1BvajTvkb6stmxqCp-12" value="&lt;span style=&quot;font-size: 23px;&quot;&gt;isim&lt;/span&gt;" style="ellipse;whiteSpace=wrap;html=1;verticalAlign=bottom;labelBackgroundColor=none;fontSize=23;fillColor=#182E3E;strokeColor=#FFFFFF;fontColor=#FFFFFF;" vertex="1" parent="1">
          <mxGeometry x="364" y="96" width="110" height="27" as="geometry" />
        </mxCell>
        <mxCell id="rgg1BvajTvkb6stmxqCp-216" style="edgeStyle=orthogonalEdgeStyle;rounded=0;orthogonalLoop=1;jettySize=auto;html=1;entryX=0.25;entryY=1;entryDx=0;entryDy=0;strokeWidth=1;align=center;verticalAlign=middle;spacing=1;fontFamily=Helvetica;fontSize=10;fontColor=default;labelBackgroundColor=none;endArrow=classic;endSize=1;strokeColor=#23445D;" edge="1" parent="1" source="rgg1BvajTvkb6stmxqCp-13" target="rgg1BvajTvkb6stmxqCp-10">
          <mxGeometry relative="1" as="geometry" />
        </mxCell>
        <mxCell id="rgg1BvajTvkb6stmxqCp-13" value="&lt;span style=&quot;font-size: 22px;&quot;&gt;e-posta&lt;/span&gt;" style="ellipse;whiteSpace=wrap;html=1;verticalAlign=bottom;labelBackgroundColor=none;fontSize=22;fillColor=#182E3E;strokeColor=#FFFFFF;fontColor=#FFFFFF;" vertex="1" parent="1">
          <mxGeometry x="427" y="152" width="110" height="27" as="geometry" />
        </mxCell>
        <mxCell id="rgg1BvajTvkb6stmxqCp-217" style="edgeStyle=orthogonalEdgeStyle;rounded=0;orthogonalLoop=1;jettySize=auto;html=1;entryX=1;entryY=0.5;entryDx=0;entryDy=0;labelBackgroundColor=none;fontColor=default;strokeColor=#23445D;" edge="1" parent="1" source="rgg1BvajTvkb6stmxqCp-14" target="rgg1BvajTvkb6stmxqCp-10">
          <mxGeometry relative="1" as="geometry" />
        </mxCell>
        <mxCell id="rgg1BvajTvkb6stmxqCp-14" value="&lt;span style=&quot;font-size: 21px;&quot;&gt;Telefon&lt;/span&gt;" style="ellipse;whiteSpace=wrap;html=1;verticalAlign=bottom;labelBackgroundColor=none;fontSize=21;fillColor=#182E3E;strokeColor=#FFFFFF;fontColor=#FFFFFF;" vertex="1" parent="1">
          <mxGeometry x="752" y="61" width="110" height="27" as="geometry" />
        </mxCell>
        <mxCell id="rgg1BvajTvkb6stmxqCp-15" value="&lt;font style=&quot;font-size: 22px;&quot;&gt;Şifre&lt;/font&gt;" style="ellipse;whiteSpace=wrap;html=1;verticalAlign=bottom;labelBackgroundColor=none;fontSize=22;fillColor=#182E3E;strokeColor=#FFFFFF;fontColor=#FFFFFF;" vertex="1" parent="1">
          <mxGeometry x="752" y="-9" width="110" height="27" as="geometry" />
        </mxCell>
        <mxCell id="rgg1BvajTvkb6stmxqCp-23" style="edgeStyle=orthogonalEdgeStyle;rounded=0;orthogonalLoop=1;jettySize=auto;html=1;entryX=1.029;entryY=0.13;entryDx=0;entryDy=0;entryPerimeter=0;exitX=0;exitY=0.5;exitDx=0;exitDy=0;strokeWidth=1;align=center;verticalAlign=middle;spacing=1;fontFamily=Helvetica;fontSize=10;fontColor=default;labelBackgroundColor=none;endArrow=classic;endSize=1;strokeColor=#23445D;" edge="1" parent="1" source="rgg1BvajTvkb6stmxqCp-15">
          <mxGeometry relative="1" as="geometry">
            <mxPoint x="622.97" y="57.400000000000006" as="sourcePoint" />
            <mxPoint x="600" y="63.95999999999998" as="targetPoint" />
          </mxGeometry>
        </mxCell>
        <mxCell id="rgg1BvajTvkb6stmxqCp-27" value="Restoranlar" style="rounded=0;whiteSpace=wrap;html=1;strokeWidth=1;perimeterSpacing=0;fontSize=19;labelBackgroundColor=none;fillColor=#182E3E;strokeColor=#FFFFFF;fontColor=#FFFFFF;" vertex="1" parent="1">
          <mxGeometry x="-108" y="191" width="110" height="27" as="geometry" />
        </mxCell>
        <mxCell id="rgg1BvajTvkb6stmxqCp-35" style="edgeStyle=orthogonalEdgeStyle;rounded=0;orthogonalLoop=1;jettySize=auto;html=1;entryX=0;entryY=0.5;entryDx=0;entryDy=0;strokeWidth=1;align=center;verticalAlign=middle;spacing=1;fontFamily=Helvetica;fontSize=10;fontColor=default;labelBackgroundColor=none;endArrow=classic;endSize=1;strokeColor=#23445D;" edge="1" parent="1" source="rgg1BvajTvkb6stmxqCp-28" target="rgg1BvajTvkb6stmxqCp-27">
          <mxGeometry relative="1" as="geometry" />
        </mxCell>
        <mxCell id="rgg1BvajTvkb6stmxqCp-28" value="&lt;span style=&quot;font-size: 18px;&quot;&gt;RestoranID&lt;/span&gt;" style="ellipse;whiteSpace=wrap;html=1;verticalAlign=bottom;labelBackgroundColor=none;fontSize=18;fillColor=#182E3E;strokeColor=#FFFFFF;fontColor=#FFFFFF;" vertex="1" parent="1">
          <mxGeometry x="-198" y="128" width="110" height="27" as="geometry" />
        </mxCell>
        <mxCell id="rgg1BvajTvkb6stmxqCp-211" style="edgeStyle=orthogonalEdgeStyle;rounded=0;orthogonalLoop=1;jettySize=auto;html=1;entryX=1;entryY=0.5;entryDx=0;entryDy=0;labelBackgroundColor=none;fontColor=default;strokeColor=#23445D;" edge="1" parent="1" source="rgg1BvajTvkb6stmxqCp-31" target="rgg1BvajTvkb6stmxqCp-27">
          <mxGeometry relative="1" as="geometry" />
        </mxCell>
        <mxCell id="rgg1BvajTvkb6stmxqCp-31" value="&lt;span style=&quot;font-size: 18px;&quot;&gt;RestoranAdı&lt;/span&gt;" style="ellipse;whiteSpace=wrap;html=1;verticalAlign=bottom;labelBackgroundColor=none;fontSize=18;fillColor=#182E3E;strokeColor=#FFFFFF;fontColor=#FFFFFF;" vertex="1" parent="1">
          <mxGeometry x="119" y="187" width="110" height="27" as="geometry" />
        </mxCell>
        <mxCell id="rgg1BvajTvkb6stmxqCp-32" value="&lt;span style=&quot;font-size: 21px;&quot;&gt;Adres&lt;/span&gt;" style="ellipse;whiteSpace=wrap;html=1;verticalAlign=bottom;labelBackgroundColor=none;fontSize=21;fillColor=#182E3E;strokeColor=#FFFFFF;fontColor=#FFFFFF;" vertex="1" parent="1">
          <mxGeometry x="-320" y="199" width="110" height="27" as="geometry" />
        </mxCell>
        <mxCell id="rgg1BvajTvkb6stmxqCp-33" value="&lt;span style=&quot;font-size: 21px;&quot;&gt;Telefon&lt;/span&gt;" style="ellipse;whiteSpace=wrap;html=1;verticalAlign=bottom;labelBackgroundColor=none;fontSize=21;fillColor=#182E3E;strokeColor=#FFFFFF;fontColor=#FFFFFF;" vertex="1" parent="1">
          <mxGeometry x="-308" y="244" width="110" height="27" as="geometry" />
        </mxCell>
        <mxCell id="rgg1BvajTvkb6stmxqCp-41" style="edgeStyle=orthogonalEdgeStyle;rounded=0;orthogonalLoop=1;jettySize=auto;html=1;strokeWidth=1;align=center;verticalAlign=middle;spacing=1;fontFamily=Helvetica;fontSize=10;fontColor=default;labelBackgroundColor=none;endArrow=classic;endSize=1;strokeColor=#23445D;" edge="1" parent="1" source="rgg1BvajTvkb6stmxqCp-34">
          <mxGeometry relative="1" as="geometry">
            <mxPoint x="-3" y="186" as="targetPoint" />
          </mxGeometry>
        </mxCell>
        <mxCell id="rgg1BvajTvkb6stmxqCp-34" value="&lt;span style=&quot;font-size: 18px;&quot;&gt;KategoriID&lt;/span&gt;" style="ellipse;whiteSpace=wrap;html=1;verticalAlign=bottom;labelBackgroundColor=none;fontSize=18;fillColor=#182E3E;strokeColor=#FFFFFF;fontColor=#FFFFFF;" vertex="1" parent="1">
          <mxGeometry x="79" y="143" width="110" height="27" as="geometry" />
        </mxCell>
        <mxCell id="rgg1BvajTvkb6stmxqCp-38" style="edgeStyle=orthogonalEdgeStyle;rounded=0;orthogonalLoop=1;jettySize=auto;html=1;entryX=0.144;entryY=1.019;entryDx=0;entryDy=0;entryPerimeter=0;strokeWidth=1;align=center;verticalAlign=middle;spacing=1;fontFamily=Helvetica;fontSize=10;fontColor=default;labelBackgroundColor=none;endArrow=classic;endSize=1;strokeColor=#23445D;" edge="1" parent="1" source="rgg1BvajTvkb6stmxqCp-32" target="rgg1BvajTvkb6stmxqCp-27">
          <mxGeometry relative="1" as="geometry" />
        </mxCell>
        <mxCell id="rgg1BvajTvkb6stmxqCp-40" style="edgeStyle=orthogonalEdgeStyle;rounded=0;orthogonalLoop=1;jettySize=auto;html=1;entryX=0.294;entryY=1.019;entryDx=0;entryDy=0;entryPerimeter=0;strokeWidth=1;align=center;verticalAlign=middle;spacing=1;fontFamily=Helvetica;fontSize=10;fontColor=default;labelBackgroundColor=none;endArrow=classic;endSize=1;strokeColor=#23445D;" edge="1" parent="1" source="rgg1BvajTvkb6stmxqCp-33" target="rgg1BvajTvkb6stmxqCp-27">
          <mxGeometry relative="1" as="geometry" />
        </mxCell>
        <mxCell id="rgg1BvajTvkb6stmxqCp-42" value="Yemekler" style="rounded=0;whiteSpace=wrap;html=1;strokeWidth=1;perimeterSpacing=0;fontSize=20;labelBackgroundColor=none;fillColor=#182E3E;strokeColor=#FFFFFF;fontColor=#FFFFFF;" vertex="1" parent="1">
          <mxGeometry x="186" y="386" width="110" height="27" as="geometry" />
        </mxCell>
        <mxCell id="rgg1BvajTvkb6stmxqCp-49" style="edgeStyle=orthogonalEdgeStyle;rounded=0;orthogonalLoop=1;jettySize=auto;html=1;entryX=0;entryY=0.5;entryDx=0;entryDy=0;strokeWidth=1;align=center;verticalAlign=middle;spacing=1;fontFamily=Helvetica;fontSize=10;fontColor=default;labelBackgroundColor=none;endArrow=classic;endSize=1;strokeColor=#23445D;" edge="1" parent="1" source="rgg1BvajTvkb6stmxqCp-43" target="rgg1BvajTvkb6stmxqCp-42">
          <mxGeometry relative="1" as="geometry" />
        </mxCell>
        <mxCell id="rgg1BvajTvkb6stmxqCp-43" value="&lt;span style=&quot;font-size: 19px;&quot;&gt;YemekID&lt;/span&gt;" style="ellipse;whiteSpace=wrap;html=1;verticalAlign=bottom;labelBackgroundColor=none;fontSize=19;fillColor=#182E3E;strokeColor=#FFFFFF;fontColor=#FFFFFF;" vertex="1" parent="1">
          <mxGeometry x="-20" y="353" width="110" height="27" as="geometry" />
        </mxCell>
        <mxCell id="rgg1BvajTvkb6stmxqCp-209" style="edgeStyle=orthogonalEdgeStyle;rounded=0;orthogonalLoop=1;jettySize=auto;html=1;entryX=0;entryY=1;entryDx=0;entryDy=0;labelBackgroundColor=none;fontColor=default;strokeColor=#23445D;" edge="1" parent="1" source="rgg1BvajTvkb6stmxqCp-44" target="rgg1BvajTvkb6stmxqCp-42">
          <mxGeometry relative="1" as="geometry" />
        </mxCell>
        <mxCell id="rgg1BvajTvkb6stmxqCp-44" value="&lt;span style=&quot;font-size: 18px;&quot;&gt;YemekAdı&lt;/span&gt;" style="ellipse;whiteSpace=wrap;html=1;verticalAlign=bottom;labelBackgroundColor=none;fontSize=18;fillColor=#182E3E;strokeColor=#FFFFFF;fontColor=#FFFFFF;" vertex="1" parent="1">
          <mxGeometry x="-28" y="400" width="110" height="27" as="geometry" />
        </mxCell>
        <mxCell id="rgg1BvajTvkb6stmxqCp-45" value="&lt;span style=&quot;font-size: 19px;&quot;&gt;Açıklama&lt;/span&gt;" style="ellipse;whiteSpace=wrap;html=1;verticalAlign=bottom;labelBackgroundColor=none;fontSize=19;fillColor=#182E3E;strokeColor=#FFFFFF;fontColor=#FFFFFF;" vertex="1" parent="1">
          <mxGeometry x="52" y="496" width="110" height="27" as="geometry" />
        </mxCell>
        <mxCell id="rgg1BvajTvkb6stmxqCp-248" style="edgeStyle=orthogonalEdgeStyle;rounded=0;orthogonalLoop=1;jettySize=auto;html=1;entryX=1;entryY=0.5;entryDx=0;entryDy=0;labelBackgroundColor=none;fontColor=default;strokeColor=#23445D;" edge="1" parent="1" source="rgg1BvajTvkb6stmxqCp-46" target="rgg1BvajTvkb6stmxqCp-42">
          <mxGeometry relative="1" as="geometry" />
        </mxCell>
        <mxCell id="rgg1BvajTvkb6stmxqCp-46" value="&lt;span style=&quot;font-size: 23px;&quot;&gt;Fiyat&lt;/span&gt;" style="ellipse;whiteSpace=wrap;html=1;verticalAlign=bottom;labelBackgroundColor=none;fontSize=23;fillColor=#182E3E;strokeColor=#FFFFFF;fontColor=#FFFFFF;" vertex="1" parent="1">
          <mxGeometry x="380" y="380" width="110" height="27" as="geometry" />
        </mxCell>
        <mxCell id="rgg1BvajTvkb6stmxqCp-208" style="edgeStyle=orthogonalEdgeStyle;rounded=0;orthogonalLoop=1;jettySize=auto;html=1;entryX=1;entryY=0.75;entryDx=0;entryDy=0;labelBackgroundColor=none;fontColor=default;strokeColor=#23445D;" edge="1" parent="1" source="rgg1BvajTvkb6stmxqCp-48" target="rgg1BvajTvkb6stmxqCp-42">
          <mxGeometry relative="1" as="geometry">
            <mxPoint x="296" y="412" as="targetPoint" />
            <Array as="points">
              <mxPoint x="316" y="419" />
              <mxPoint x="297" y="419" />
              <mxPoint x="297" y="412" />
            </Array>
          </mxGeometry>
        </mxCell>
        <mxCell id="rgg1BvajTvkb6stmxqCp-48" value="&lt;span style=&quot;font-size: 19px;&quot;&gt;RestoranID&lt;/span&gt;" style="ellipse;whiteSpace=wrap;html=1;verticalAlign=bottom;labelBackgroundColor=none;fontSize=19;fillColor=#182E3E;strokeColor=#FFFFFF;fontColor=#FFFFFF;" vertex="1" parent="1">
          <mxGeometry x="264" y="464" width="110" height="27" as="geometry" />
        </mxCell>
        <mxCell id="rgg1BvajTvkb6stmxqCp-51" style="edgeStyle=orthogonalEdgeStyle;rounded=0;orthogonalLoop=1;jettySize=auto;html=1;entryX=0.187;entryY=0.991;entryDx=0;entryDy=0;entryPerimeter=0;strokeWidth=1;align=center;verticalAlign=middle;spacing=1;fontFamily=Helvetica;fontSize=10;fontColor=default;labelBackgroundColor=none;endArrow=classic;endSize=1;strokeColor=#23445D;" edge="1" parent="1" source="rgg1BvajTvkb6stmxqCp-45" target="rgg1BvajTvkb6stmxqCp-42">
          <mxGeometry relative="1" as="geometry" />
        </mxCell>
        <mxCell id="rgg1BvajTvkb6stmxqCp-55" value="Siparişler" style="rounded=0;whiteSpace=wrap;html=1;strokeWidth=1;perimeterSpacing=0;fontSize=20;labelBackgroundColor=none;verticalAlign=middle;fillColor=#182E3E;strokeColor=#FFFFFF;fontColor=#FFFFFF;" vertex="1" parent="1">
          <mxGeometry x="574" y="480" width="110" height="27" as="geometry" />
        </mxCell>
        <mxCell id="rgg1BvajTvkb6stmxqCp-56" value="&lt;span style=&quot;font-size: 19px;&quot;&gt;SiparişID&lt;/span&gt;" style="ellipse;whiteSpace=wrap;html=1;verticalAlign=bottom;labelBackgroundColor=none;fontSize=19;fillColor=#182E3E;strokeColor=#FFFFFF;fontColor=#FFFFFF;" vertex="1" parent="1">
          <mxGeometry x="392" y="464" width="110" height="27" as="geometry" />
        </mxCell>
        <mxCell id="rgg1BvajTvkb6stmxqCp-246" style="edgeStyle=orthogonalEdgeStyle;rounded=0;orthogonalLoop=1;jettySize=auto;html=1;entryX=1;entryY=1;entryDx=0;entryDy=0;labelBackgroundColor=none;fontColor=default;strokeColor=#23445D;" edge="1" parent="1" source="rgg1BvajTvkb6stmxqCp-60" target="rgg1BvajTvkb6stmxqCp-55">
          <mxGeometry relative="1" as="geometry" />
        </mxCell>
        <mxCell id="rgg1BvajTvkb6stmxqCp-60" value="&lt;span style=&quot;font-size: 16px;&quot;&gt;SiparişZamanı&lt;/span&gt;" style="ellipse;whiteSpace=wrap;html=1;verticalAlign=bottom;labelBackgroundColor=none;fontSize=16;fillColor=#182E3E;strokeColor=#FFFFFF;fontColor=#FFFFFF;" vertex="1" parent="1">
          <mxGeometry x="704" y="576" width="110" height="27" as="geometry" />
        </mxCell>
        <mxCell id="rgg1BvajTvkb6stmxqCp-263" style="edgeStyle=orthogonalEdgeStyle;rounded=0;orthogonalLoop=1;jettySize=auto;html=1;entryX=1;entryY=0.25;entryDx=0;entryDy=0;labelBackgroundColor=none;fontColor=default;strokeColor=#23445D;" edge="1" parent="1" source="rgg1BvajTvkb6stmxqCp-61" target="rgg1BvajTvkb6stmxqCp-55">
          <mxGeometry relative="1" as="geometry" />
        </mxCell>
        <mxCell id="rgg1BvajTvkb6stmxqCp-61" value="&lt;span style=&quot;font-size: 18px;&quot;&gt;KulllanıcıID&lt;/span&gt;" style="ellipse;whiteSpace=wrap;html=1;verticalAlign=bottom;labelBackgroundColor=none;fontSize=18;fillColor=#182E3E;strokeColor=#FFFFFF;fontColor=#FFFFFF;" vertex="1" parent="1">
          <mxGeometry x="768" y="380" width="110" height="27" as="geometry" />
        </mxCell>
        <mxCell id="rgg1BvajTvkb6stmxqCp-62" value="&lt;span style=&quot;font-size: 17px;&quot;&gt;ToplamFiyat&lt;/span&gt;" style="ellipse;whiteSpace=wrap;html=1;verticalAlign=bottom;labelBackgroundColor=none;fontSize=17;fillColor=#182E3E;strokeColor=#FFFFFF;fontColor=#FFFFFF;" vertex="1" parent="1">
          <mxGeometry x="380" y="528" width="110" height="27" as="geometry" />
        </mxCell>
        <mxCell id="rgg1BvajTvkb6stmxqCp-67" style="edgeStyle=orthogonalEdgeStyle;rounded=0;orthogonalLoop=1;jettySize=auto;html=1;entryX=0.25;entryY=1;entryDx=0;entryDy=0;strokeWidth=1;align=center;verticalAlign=middle;spacing=1;fontFamily=Helvetica;fontSize=10;fontColor=default;labelBackgroundColor=none;endArrow=classic;endSize=1;strokeColor=#23445D;" edge="1" parent="1" source="rgg1BvajTvkb6stmxqCp-63" target="rgg1BvajTvkb6stmxqCp-55">
          <mxGeometry relative="1" as="geometry">
            <Array as="points">
              <mxPoint x="588" y="580" />
              <mxPoint x="588" y="531" />
              <mxPoint x="602" y="531" />
            </Array>
          </mxGeometry>
        </mxCell>
        <mxCell id="rgg1BvajTvkb6stmxqCp-63" value="&lt;span style=&quot;font-size: 20px;&quot;&gt;Durum&lt;/span&gt;" style="ellipse;whiteSpace=wrap;html=1;verticalAlign=bottom;labelBackgroundColor=none;fontSize=20;fillColor=#182E3E;strokeColor=#FFFFFF;fontColor=#FFFFFF;" vertex="1" parent="1">
          <mxGeometry x="380" y="572" width="110" height="27" as="geometry" />
        </mxCell>
        <mxCell id="rgg1BvajTvkb6stmxqCp-65" style="edgeStyle=orthogonalEdgeStyle;rounded=0;orthogonalLoop=1;jettySize=auto;html=1;entryX=-0.004;entryY=0.624;entryDx=0;entryDy=0;entryPerimeter=0;strokeWidth=1;align=center;verticalAlign=middle;spacing=1;fontFamily=Helvetica;fontSize=10;fontColor=default;labelBackgroundColor=none;endArrow=classic;endSize=1;strokeColor=#23445D;" edge="1" parent="1" source="rgg1BvajTvkb6stmxqCp-56" target="rgg1BvajTvkb6stmxqCp-55">
          <mxGeometry relative="1" as="geometry" />
        </mxCell>
        <mxCell id="rgg1BvajTvkb6stmxqCp-70" value="SiparişDetay" style="rounded=0;whiteSpace=wrap;html=1;strokeWidth=1;perimeterSpacing=0;fontSize=16;labelBackgroundColor=none;fillColor=#182E3E;strokeColor=#FFFFFF;fontColor=#FFFFFF;" vertex="1" parent="1">
          <mxGeometry x="535" y="800" width="110" height="27" as="geometry" />
        </mxCell>
        <mxCell id="rgg1BvajTvkb6stmxqCp-76" style="edgeStyle=orthogonalEdgeStyle;rounded=0;orthogonalLoop=1;jettySize=auto;html=1;entryX=0;entryY=0.5;entryDx=0;entryDy=0;strokeWidth=1;align=center;verticalAlign=middle;spacing=1;fontFamily=Helvetica;fontSize=10;fontColor=default;labelBackgroundColor=none;endArrow=classic;endSize=1;strokeColor=#23445D;" edge="1" parent="1" source="rgg1BvajTvkb6stmxqCp-71" target="rgg1BvajTvkb6stmxqCp-70">
          <mxGeometry relative="1" as="geometry" />
        </mxCell>
        <mxCell id="rgg1BvajTvkb6stmxqCp-71" value="&lt;span style=&quot;font-size: 16px;&quot;&gt;SiparişDetayID&lt;/span&gt;" style="ellipse;whiteSpace=wrap;html=1;verticalAlign=bottom;labelBackgroundColor=none;fontSize=16;fillColor=#182E3E;strokeColor=#FFFFFF;fontColor=#FFFFFF;" vertex="1" parent="1">
          <mxGeometry x="399" y="773" width="110" height="27" as="geometry" />
        </mxCell>
        <mxCell id="rgg1BvajTvkb6stmxqCp-72" value="&lt;span style=&quot;font-size: 19px;&quot;&gt;SiparişID&lt;/span&gt;" style="ellipse;whiteSpace=wrap;html=1;verticalAlign=bottom;labelBackgroundColor=none;fontSize=19;fillColor=#182E3E;strokeColor=#FFFFFF;fontColor=#FFFFFF;" vertex="1" parent="1">
          <mxGeometry x="388" y="868" width="110" height="27" as="geometry" />
        </mxCell>
        <mxCell id="rgg1BvajTvkb6stmxqCp-73" value="&lt;span style=&quot;font-size: 18px;&quot;&gt;YemekID&lt;/span&gt;" style="ellipse;whiteSpace=wrap;html=1;verticalAlign=bottom;labelBackgroundColor=none;fontSize=18;fillColor=#182E3E;strokeColor=#FFFFFF;fontColor=#FFFFFF;" vertex="1" parent="1">
          <mxGeometry x="574" y="911" width="110" height="27" as="geometry" />
        </mxCell>
        <mxCell id="rgg1BvajTvkb6stmxqCp-80" style="edgeStyle=orthogonalEdgeStyle;rounded=0;orthogonalLoop=1;jettySize=auto;html=1;entryX=1;entryY=1;entryDx=0;entryDy=0;strokeWidth=1;align=center;verticalAlign=middle;spacing=1;fontFamily=Helvetica;fontSize=10;fontColor=default;labelBackgroundColor=none;endArrow=classic;endSize=1;strokeColor=#23445D;" edge="1" parent="1" source="rgg1BvajTvkb6stmxqCp-74" target="rgg1BvajTvkb6stmxqCp-70">
          <mxGeometry relative="1" as="geometry" />
        </mxCell>
        <mxCell id="rgg1BvajTvkb6stmxqCp-74" value="&lt;span style=&quot;font-size: 19px;&quot;&gt;Miktar&lt;/span&gt;" style="ellipse;whiteSpace=wrap;html=1;verticalAlign=bottom;labelBackgroundColor=none;fontSize=19;fillColor=#182E3E;strokeColor=#FFFFFF;fontColor=#FFFFFF;" vertex="1" parent="1">
          <mxGeometry x="718" y="852" width="110" height="27" as="geometry" />
        </mxCell>
        <mxCell id="rgg1BvajTvkb6stmxqCp-79" style="edgeStyle=orthogonalEdgeStyle;rounded=0;orthogonalLoop=1;jettySize=auto;html=1;entryX=1;entryY=0.5;entryDx=0;entryDy=0;strokeWidth=1;align=center;verticalAlign=middle;spacing=1;fontFamily=Helvetica;fontSize=10;fontColor=default;labelBackgroundColor=none;endArrow=classic;endSize=1;strokeColor=#23445D;" edge="1" parent="1" source="rgg1BvajTvkb6stmxqCp-75" target="rgg1BvajTvkb6stmxqCp-70">
          <mxGeometry relative="1" as="geometry" />
        </mxCell>
        <mxCell id="rgg1BvajTvkb6stmxqCp-75" value="&lt;span style=&quot;font-size: 16px;&quot;&gt;YemekFiyatı&lt;/span&gt;" style="ellipse;whiteSpace=wrap;html=1;verticalAlign=bottom;labelBackgroundColor=none;fontSize=16;fillColor=#182E3E;strokeColor=#FFFFFF;fontColor=#FFFFFF;" vertex="1" parent="1">
          <mxGeometry x="708" y="764" width="110" height="27" as="geometry" />
        </mxCell>
        <mxCell id="rgg1BvajTvkb6stmxqCp-77" style="edgeStyle=orthogonalEdgeStyle;rounded=0;orthogonalLoop=1;jettySize=auto;html=1;entryX=0.086;entryY=1;entryDx=0;entryDy=0;entryPerimeter=0;strokeWidth=1;align=center;verticalAlign=middle;spacing=1;fontFamily=Helvetica;fontSize=10;fontColor=default;labelBackgroundColor=none;endArrow=classic;endSize=1;strokeColor=#23445D;" edge="1" parent="1" source="rgg1BvajTvkb6stmxqCp-72" target="rgg1BvajTvkb6stmxqCp-70">
          <mxGeometry relative="1" as="geometry" />
        </mxCell>
        <mxCell id="rgg1BvajTvkb6stmxqCp-78" style="edgeStyle=orthogonalEdgeStyle;rounded=0;orthogonalLoop=1;jettySize=auto;html=1;entryX=0.215;entryY=1.038;entryDx=0;entryDy=0;entryPerimeter=0;strokeWidth=1;align=center;verticalAlign=middle;spacing=1;fontFamily=Helvetica;fontSize=10;fontColor=default;labelBackgroundColor=none;endArrow=classic;endSize=1;strokeColor=#23445D;" edge="1" parent="1" source="rgg1BvajTvkb6stmxqCp-73" target="rgg1BvajTvkb6stmxqCp-70">
          <mxGeometry relative="1" as="geometry" />
        </mxCell>
        <mxCell id="rgg1BvajTvkb6stmxqCp-83" value="ÖdemeBilgileri" style="rounded=0;whiteSpace=wrap;html=1;strokeWidth=1;perimeterSpacing=0;fontSize=16;labelBackgroundColor=none;fillColor=#182E3E;strokeColor=#FFFFFF;fontColor=#FFFFFF;" vertex="1" parent="1">
          <mxGeometry x="981.05" y="276" width="110" height="27" as="geometry" />
        </mxCell>
        <mxCell id="rgg1BvajTvkb6stmxqCp-89" style="edgeStyle=orthogonalEdgeStyle;rounded=0;orthogonalLoop=1;jettySize=auto;html=1;entryX=0.327;entryY=0.02;entryDx=0;entryDy=0;strokeWidth=1;align=center;verticalAlign=middle;spacing=1;fontFamily=Helvetica;fontSize=10;fontColor=default;labelBackgroundColor=none;endArrow=classic;endSize=1;entryPerimeter=0;strokeColor=#23445D;" edge="1" parent="1" source="rgg1BvajTvkb6stmxqCp-84" target="rgg1BvajTvkb6stmxqCp-83">
          <mxGeometry relative="1" as="geometry" />
        </mxCell>
        <mxCell id="rgg1BvajTvkb6stmxqCp-84" value="&lt;span style=&quot;font-size: 18px;&quot;&gt;ÖdemeID&lt;/span&gt;" style="ellipse;whiteSpace=wrap;html=1;verticalAlign=bottom;labelBackgroundColor=none;fontSize=18;fillColor=#182E3E;strokeColor=#FFFFFF;fontColor=#FFFFFF;" vertex="1" parent="1">
          <mxGeometry x="980" y="169" width="110" height="27" as="geometry" />
        </mxCell>
        <mxCell id="rgg1BvajTvkb6stmxqCp-85" value="&lt;span style=&quot;font-size: 18px;&quot;&gt;SiparişID&lt;/span&gt;" style="ellipse;whiteSpace=wrap;html=1;verticalAlign=bottom;labelBackgroundColor=none;fontSize=18;fillColor=#182E3E;strokeColor=#FFFFFF;fontColor=#FFFFFF;" vertex="1" parent="1">
          <mxGeometry x="936" y="368" width="110" height="27" as="geometry" />
        </mxCell>
        <mxCell id="rgg1BvajTvkb6stmxqCp-86" value="&lt;span style=&quot;font-size: 17px;&quot;&gt;ÖdemeTürü&lt;/span&gt;" style="ellipse;whiteSpace=wrap;html=1;verticalAlign=bottom;labelBackgroundColor=none;fontSize=17;fillColor=#182E3E;strokeColor=#FFFFFF;fontColor=#FFFFFF;" vertex="1" parent="1">
          <mxGeometry x="1088" y="380" width="110" height="27" as="geometry" />
        </mxCell>
        <mxCell id="rgg1BvajTvkb6stmxqCp-93" style="edgeStyle=orthogonalEdgeStyle;rounded=0;orthogonalLoop=1;jettySize=auto;html=1;entryX=1;entryY=1;entryDx=0;entryDy=0;strokeWidth=1;align=center;verticalAlign=middle;spacing=1;fontFamily=Helvetica;fontSize=10;fontColor=default;labelBackgroundColor=none;endArrow=classic;endSize=1;strokeColor=#23445D;" edge="1" parent="1" source="rgg1BvajTvkb6stmxqCp-87" target="rgg1BvajTvkb6stmxqCp-83">
          <mxGeometry relative="1" as="geometry" />
        </mxCell>
        <mxCell id="rgg1BvajTvkb6stmxqCp-87" value="&lt;span style=&quot;font-size: 15px;&quot;&gt;ÖdemeDurumu&lt;/span&gt;" style="ellipse;whiteSpace=wrap;html=1;verticalAlign=bottom;labelBackgroundColor=none;fontSize=15;fillColor=#182E3E;strokeColor=#FFFFFF;fontColor=#FFFFFF;" vertex="1" parent="1">
          <mxGeometry x="1164" y="299" width="110" height="27" as="geometry" />
        </mxCell>
        <mxCell id="rgg1BvajTvkb6stmxqCp-92" style="edgeStyle=orthogonalEdgeStyle;rounded=0;orthogonalLoop=1;jettySize=auto;html=1;entryX=1;entryY=0.5;entryDx=0;entryDy=0;strokeWidth=1;align=center;verticalAlign=middle;spacing=1;fontFamily=Helvetica;fontSize=10;fontColor=default;labelBackgroundColor=none;endArrow=classic;endSize=1;strokeColor=#23445D;" edge="1" parent="1" source="rgg1BvajTvkb6stmxqCp-88" target="rgg1BvajTvkb6stmxqCp-83">
          <mxGeometry relative="1" as="geometry" />
        </mxCell>
        <mxCell id="rgg1BvajTvkb6stmxqCp-88" value="&lt;span style=&quot;font-size: 19px;&quot;&gt;Tarih&lt;/span&gt;" style="ellipse;whiteSpace=wrap;html=1;verticalAlign=bottom;labelBackgroundColor=none;fontSize=19;fillColor=#182E3E;strokeColor=#FFFFFF;fontColor=#FFFFFF;" vertex="1" parent="1">
          <mxGeometry x="1156" y="214" width="110" height="27" as="geometry" />
        </mxCell>
        <mxCell id="rgg1BvajTvkb6stmxqCp-90" style="edgeStyle=orthogonalEdgeStyle;rounded=0;orthogonalLoop=1;jettySize=auto;html=1;entryX=0.098;entryY=0.985;entryDx=0;entryDy=0;entryPerimeter=0;strokeWidth=1;align=center;verticalAlign=middle;spacing=1;fontFamily=Helvetica;fontSize=10;fontColor=default;labelBackgroundColor=none;endArrow=classic;endSize=1;strokeColor=#23445D;" edge="1" parent="1" source="rgg1BvajTvkb6stmxqCp-85" target="rgg1BvajTvkb6stmxqCp-83">
          <mxGeometry relative="1" as="geometry" />
        </mxCell>
        <mxCell id="rgg1BvajTvkb6stmxqCp-91" style="edgeStyle=orthogonalEdgeStyle;rounded=0;orthogonalLoop=1;jettySize=auto;html=1;entryX=0.652;entryY=1.16;entryDx=0;entryDy=0;entryPerimeter=0;strokeWidth=1;align=center;verticalAlign=middle;spacing=1;fontFamily=Helvetica;fontSize=10;fontColor=default;labelBackgroundColor=none;endArrow=classic;endSize=1;strokeColor=#23445D;" edge="1" parent="1" source="rgg1BvajTvkb6stmxqCp-86" target="rgg1BvajTvkb6stmxqCp-83">
          <mxGeometry relative="1" as="geometry" />
        </mxCell>
        <mxCell id="rgg1BvajTvkb6stmxqCp-94" value="Puanlama" style="rounded=0;whiteSpace=wrap;html=1;strokeWidth=1;perimeterSpacing=0;fontSize=19;labelBackgroundColor=none;fillColor=#182E3E;strokeColor=#FFFFFF;fontColor=#FFFFFF;" vertex="1" parent="1">
          <mxGeometry x="148" y="4" width="110" height="27" as="geometry" />
        </mxCell>
        <mxCell id="rgg1BvajTvkb6stmxqCp-101" style="edgeStyle=orthogonalEdgeStyle;rounded=0;orthogonalLoop=1;jettySize=auto;html=1;entryX=0;entryY=0.5;entryDx=0;entryDy=0;strokeWidth=1;align=center;verticalAlign=middle;spacing=1;fontFamily=Helvetica;fontSize=10;fontColor=default;labelBackgroundColor=none;endArrow=classic;endSize=1;strokeColor=#23445D;" edge="1" parent="1" source="rgg1BvajTvkb6stmxqCp-95" target="rgg1BvajTvkb6stmxqCp-94">
          <mxGeometry relative="1" as="geometry" />
        </mxCell>
        <mxCell id="rgg1BvajTvkb6stmxqCp-95" value="&lt;span style=&quot;font-size: 16px;&quot;&gt;YorumID&lt;/span&gt;" style="ellipse;whiteSpace=wrap;html=1;verticalAlign=bottom;labelBackgroundColor=none;fontSize=16;fillColor=#182E3E;strokeColor=#FFFFFF;fontColor=#FFFFFF;" vertex="1" parent="1">
          <mxGeometry x="40" y="-55.999999999999964" width="110" height="27" as="geometry" />
        </mxCell>
        <mxCell id="rgg1BvajTvkb6stmxqCp-96" value="&lt;span style=&quot;font-size: 17px;&quot;&gt;KullanıcıID&lt;/span&gt;" style="ellipse;whiteSpace=wrap;html=1;verticalAlign=bottom;labelBackgroundColor=none;fontSize=17;fillColor=#182E3E;strokeColor=#FFFFFF;fontColor=#FFFFFF;" vertex="1" parent="1">
          <mxGeometry x="-28" y="18.00000000000003" width="110" height="27" as="geometry" />
        </mxCell>
        <mxCell id="rgg1BvajTvkb6stmxqCp-97" value="&lt;span style=&quot;font-size: 16px;&quot;&gt;RestoranID&lt;/span&gt;" style="ellipse;whiteSpace=wrap;html=1;verticalAlign=bottom;labelBackgroundColor=none;fontSize=16;fillColor=#182E3E;strokeColor=#FFFFFF;fontColor=#FFFFFF;" vertex="1" parent="1">
          <mxGeometry x="6" y="64.96000000000004" width="110" height="27" as="geometry" />
        </mxCell>
        <mxCell id="rgg1BvajTvkb6stmxqCp-98" value="&lt;span style=&quot;font-size: 20px;&quot;&gt;Puan&lt;/span&gt;" style="ellipse;whiteSpace=wrap;html=1;verticalAlign=bottom;labelBackgroundColor=none;fontSize=20;fillColor=#182E3E;strokeColor=#FFFFFF;fontColor=#FFFFFF;" vertex="1" parent="1">
          <mxGeometry x="145" y="88.00000000000003" width="110" height="27" as="geometry" />
        </mxCell>
        <mxCell id="rgg1BvajTvkb6stmxqCp-106" style="edgeStyle=orthogonalEdgeStyle;rounded=0;orthogonalLoop=1;jettySize=auto;html=1;entryX=0.817;entryY=-0.01;entryDx=0;entryDy=0;strokeWidth=1;align=center;verticalAlign=middle;spacing=1;fontFamily=Helvetica;fontSize=10;fontColor=default;labelBackgroundColor=none;endArrow=classic;endSize=1;entryPerimeter=0;strokeColor=#23445D;" edge="1" parent="1" source="rgg1BvajTvkb6stmxqCp-99" target="rgg1BvajTvkb6stmxqCp-94">
          <mxGeometry relative="1" as="geometry" />
        </mxCell>
        <mxCell id="rgg1BvajTvkb6stmxqCp-99" value="&lt;span style=&quot;font-size: 20px;&quot;&gt;Yorum&lt;/span&gt;" style="ellipse;whiteSpace=wrap;html=1;verticalAlign=bottom;labelBackgroundColor=none;fontSize=20;fillColor=#182E3E;strokeColor=#FFFFFF;fontColor=#FFFFFF;" vertex="1" parent="1">
          <mxGeometry x="260" y="-63.99999999999997" width="110" height="27" as="geometry" />
        </mxCell>
        <mxCell id="rgg1BvajTvkb6stmxqCp-107" style="edgeStyle=orthogonalEdgeStyle;rounded=0;orthogonalLoop=1;jettySize=auto;html=1;strokeWidth=1;align=center;verticalAlign=middle;spacing=1;fontFamily=Helvetica;fontSize=10;fontColor=default;labelBackgroundColor=none;endArrow=classic;endSize=1;strokeColor=#23445D;" edge="1" parent="1" source="rgg1BvajTvkb6stmxqCp-100">
          <mxGeometry relative="1" as="geometry">
            <mxPoint x="160" y="3" as="targetPoint" />
          </mxGeometry>
        </mxCell>
        <mxCell id="rgg1BvajTvkb6stmxqCp-100" value="&lt;span style=&quot;font-size: 19px;&quot;&gt;Tarih&lt;/span&gt;" style="ellipse;whiteSpace=wrap;html=1;verticalAlign=bottom;labelBackgroundColor=none;fontSize=19;fillColor=#182E3E;strokeColor=#FFFFFF;fontColor=#FFFFFF;" vertex="1" parent="1">
          <mxGeometry x="158" y="-96" width="110" height="27" as="geometry" />
        </mxCell>
        <mxCell id="rgg1BvajTvkb6stmxqCp-102" style="edgeStyle=orthogonalEdgeStyle;rounded=0;orthogonalLoop=1;jettySize=auto;html=1;entryX=0.035;entryY=1.011;entryDx=0;entryDy=0;entryPerimeter=0;strokeWidth=1;align=center;verticalAlign=middle;spacing=1;fontFamily=Helvetica;fontSize=10;fontColor=default;labelBackgroundColor=none;endArrow=classic;endSize=1;strokeColor=#23445D;" edge="1" parent="1" source="rgg1BvajTvkb6stmxqCp-96" target="rgg1BvajTvkb6stmxqCp-94">
          <mxGeometry relative="1" as="geometry" />
        </mxCell>
        <mxCell id="rgg1BvajTvkb6stmxqCp-105" style="edgeStyle=orthogonalEdgeStyle;rounded=0;orthogonalLoop=1;jettySize=auto;html=1;entryX=0.355;entryY=1.04;entryDx=0;entryDy=0;entryPerimeter=0;strokeWidth=1;align=center;verticalAlign=middle;spacing=1;fontFamily=Helvetica;fontSize=10;fontColor=default;labelBackgroundColor=none;endArrow=classic;endSize=1;strokeColor=#23445D;" edge="1" parent="1" source="rgg1BvajTvkb6stmxqCp-98" target="rgg1BvajTvkb6stmxqCp-94">
          <mxGeometry relative="1" as="geometry" />
        </mxCell>
        <mxCell id="rgg1BvajTvkb6stmxqCp-118" value="Kategori" style="rounded=0;whiteSpace=wrap;html=1;strokeWidth=1;perimeterSpacing=0;fontSize=22;labelBackgroundColor=none;fillColor=#182E3E;strokeColor=#FFFFFF;fontColor=#FFFFFF;" vertex="1" parent="1">
          <mxGeometry x="-24" y="656" width="110" height="27" as="geometry" />
        </mxCell>
        <mxCell id="rgg1BvajTvkb6stmxqCp-120" value="&lt;span style=&quot;font-size: 19px;&quot;&gt;KategoriID&lt;/span&gt;" style="ellipse;whiteSpace=wrap;html=1;verticalAlign=bottom;labelBackgroundColor=none;fontSize=19;fillColor=#182E3E;strokeColor=#FFFFFF;fontColor=#FFFFFF;" vertex="1" parent="1">
          <mxGeometry x="-176" y="712" width="110" height="27" as="geometry" />
        </mxCell>
        <mxCell id="rgg1BvajTvkb6stmxqCp-121" value="KategoriAdı" style="ellipse;whiteSpace=wrap;html=1;verticalAlign=bottom;labelBackgroundColor=none;fontSize=18;fillColor=#182E3E;strokeColor=#FFFFFF;fontColor=#FFFFFF;" vertex="1" parent="1">
          <mxGeometry x="184" y="708" width="110" height="27" as="geometry" />
        </mxCell>
        <mxCell id="rgg1BvajTvkb6stmxqCp-127" style="edgeStyle=orthogonalEdgeStyle;rounded=0;orthogonalLoop=1;jettySize=auto;html=1;strokeWidth=1;align=center;verticalAlign=middle;spacing=1;fontFamily=Helvetica;fontSize=10;fontColor=default;labelBackgroundColor=none;endArrow=classic;endSize=1;entryX=1;entryY=0.25;entryDx=0;entryDy=0;strokeColor=#23445D;" edge="1" parent="1" source="rgg1BvajTvkb6stmxqCp-121" target="rgg1BvajTvkb6stmxqCp-118">
          <mxGeometry relative="1" as="geometry">
            <mxPoint x="206" y="594" as="targetPoint" />
          </mxGeometry>
        </mxCell>
        <mxCell id="rgg1BvajTvkb6stmxqCp-131" value="Teslimat" style="rounded=0;whiteSpace=wrap;html=1;strokeWidth=1;perimeterSpacing=0;fontSize=21;labelBackgroundColor=none;fillColor=#182E3E;strokeColor=#FFFFFF;fontColor=#FFFFFF;" vertex="1" parent="1">
          <mxGeometry x="1007" y="561" width="110" height="27" as="geometry" />
        </mxCell>
        <mxCell id="rgg1BvajTvkb6stmxqCp-132" style="edgeStyle=orthogonalEdgeStyle;rounded=0;orthogonalLoop=1;jettySize=auto;html=1;entryX=0.75;entryY=0;entryDx=0;entryDy=0;strokeWidth=1;align=center;verticalAlign=middle;spacing=1;fontFamily=Helvetica;fontSize=10;fontColor=default;labelBackgroundColor=none;endArrow=classic;endSize=1;strokeColor=#23445D;" edge="1" parent="1" source="rgg1BvajTvkb6stmxqCp-133" target="rgg1BvajTvkb6stmxqCp-131">
          <mxGeometry relative="1" as="geometry" />
        </mxCell>
        <mxCell id="rgg1BvajTvkb6stmxqCp-133" value="&lt;span style=&quot;font-size: 19px;&quot;&gt;TeslimatID&lt;/span&gt;" style="ellipse;whiteSpace=wrap;html=1;verticalAlign=bottom;labelBackgroundColor=none;fontSize=19;fillColor=#182E3E;strokeColor=#FFFFFF;fontColor=#FFFFFF;" vertex="1" parent="1">
          <mxGeometry x="1062" y="484" width="110" height="27" as="geometry" />
        </mxCell>
        <mxCell id="rgg1BvajTvkb6stmxqCp-134" value="&lt;span style=&quot;font-size: 18px;&quot;&gt;SiparişID&lt;/span&gt;" style="ellipse;whiteSpace=wrap;html=1;verticalAlign=bottom;labelBackgroundColor=none;fontSize=18;fillColor=#182E3E;strokeColor=#FFFFFF;fontColor=#FFFFFF;" vertex="1" parent="1">
          <mxGeometry x="980" y="644" width="110" height="27" as="geometry" />
        </mxCell>
        <mxCell id="rgg1BvajTvkb6stmxqCp-135" value="&lt;span style=&quot;font-size: 18px;&quot;&gt;KuryeAdı&lt;/span&gt;" style="ellipse;whiteSpace=wrap;html=1;verticalAlign=bottom;labelBackgroundColor=none;fontSize=18;fillColor=#182E3E;strokeColor=#FFFFFF;fontColor=#FFFFFF;" vertex="1" parent="1">
          <mxGeometry x="1150" y="629" width="110" height="27" as="geometry" />
        </mxCell>
        <mxCell id="rgg1BvajTvkb6stmxqCp-138" style="edgeStyle=orthogonalEdgeStyle;rounded=0;orthogonalLoop=1;jettySize=auto;html=1;entryX=1;entryY=0.5;entryDx=0;entryDy=0;strokeWidth=1;align=center;verticalAlign=middle;spacing=1;fontFamily=Helvetica;fontSize=10;fontColor=default;labelBackgroundColor=none;endArrow=classic;endSize=1;strokeColor=#23445D;" edge="1" parent="1" target="rgg1BvajTvkb6stmxqCp-131">
          <mxGeometry relative="1" as="geometry">
            <mxPoint x="1235.0000448548435" y="565.5172413793105" as="sourcePoint" />
          </mxGeometry>
        </mxCell>
        <mxCell id="rgg1BvajTvkb6stmxqCp-139" value="&lt;span style=&quot;font-size: 14px;&quot;&gt;TeslimatDurumu&lt;/span&gt;" style="ellipse;whiteSpace=wrap;html=1;verticalAlign=middle;labelBackgroundColor=none;fontSize=14;fillColor=#182E3E;strokeColor=#FFFFFF;fontColor=#FFFFFF;" vertex="1" parent="1">
          <mxGeometry x="1172" y="561" width="110" height="27" as="geometry" />
        </mxCell>
        <mxCell id="rgg1BvajTvkb6stmxqCp-140" style="edgeStyle=orthogonalEdgeStyle;rounded=0;orthogonalLoop=1;jettySize=auto;html=1;entryX=0.633;entryY=0.977;entryDx=0;entryDy=0;entryPerimeter=0;strokeWidth=1;align=center;verticalAlign=middle;spacing=1;fontFamily=Helvetica;fontSize=10;fontColor=default;labelBackgroundColor=none;endArrow=classic;endSize=1;strokeColor=#23445D;" edge="1" parent="1" source="rgg1BvajTvkb6stmxqCp-134" target="rgg1BvajTvkb6stmxqCp-131">
          <mxGeometry relative="1" as="geometry" />
        </mxCell>
        <mxCell id="rgg1BvajTvkb6stmxqCp-141" style="edgeStyle=orthogonalEdgeStyle;rounded=0;orthogonalLoop=1;jettySize=auto;html=1;entryX=0.958;entryY=1.137;entryDx=0;entryDy=0;entryPerimeter=0;strokeWidth=1;align=center;verticalAlign=middle;spacing=1;fontFamily=Helvetica;fontSize=10;fontColor=default;labelBackgroundColor=none;endArrow=classic;endSize=1;strokeColor=#23445D;" edge="1" parent="1" source="rgg1BvajTvkb6stmxqCp-135" target="rgg1BvajTvkb6stmxqCp-131">
          <mxGeometry relative="1" as="geometry" />
        </mxCell>
        <mxCell id="rgg1BvajTvkb6stmxqCp-147" value="İçerir" style="rhombus;whiteSpace=wrap;html=1;fontSize=18;labelBackgroundColor=none;fillColor=#182E3E;strokeColor=#FFFFFF;fontColor=#FFFFFF;" vertex="1" parent="1">
          <mxGeometry x="548" y="664" width="110" height="27" as="geometry" />
        </mxCell>
        <mxCell id="rgg1BvajTvkb6stmxqCp-148" style="edgeStyle=orthogonalEdgeStyle;rounded=0;orthogonalLoop=1;jettySize=auto;html=1;entryX=0.606;entryY=0.972;entryDx=0;entryDy=0;entryPerimeter=0;labelBackgroundColor=none;fontColor=default;strokeWidth=1;align=center;verticalAlign=middle;spacing=1;fontFamily=Helvetica;fontSize=10;endArrow=classic;endSize=1;strokeColor=#23445D;" edge="1" parent="1" source="rgg1BvajTvkb6stmxqCp-147" target="rgg1BvajTvkb6stmxqCp-55">
          <mxGeometry relative="1" as="geometry" />
        </mxCell>
        <mxCell id="rgg1BvajTvkb6stmxqCp-149" style="edgeStyle=orthogonalEdgeStyle;rounded=0;orthogonalLoop=1;jettySize=auto;html=1;entryX=0.621;entryY=-0.028;entryDx=0;entryDy=0;entryPerimeter=0;labelBackgroundColor=none;fontColor=default;strokeColor=#23445D;" edge="1" parent="1" source="rgg1BvajTvkb6stmxqCp-147" target="rgg1BvajTvkb6stmxqCp-70">
          <mxGeometry relative="1" as="geometry" />
        </mxCell>
        <mxCell id="rgg1BvajTvkb6stmxqCp-151" style="edgeStyle=orthogonalEdgeStyle;rounded=0;orthogonalLoop=1;jettySize=auto;html=1;entryX=1;entryY=1;entryDx=0;entryDy=0;labelBackgroundColor=none;fontColor=default;strokeColor=#23445D;" edge="1" parent="1" source="rgg1BvajTvkb6stmxqCp-150" target="rgg1BvajTvkb6stmxqCp-27">
          <mxGeometry relative="1" as="geometry" />
        </mxCell>
        <mxCell id="rgg1BvajTvkb6stmxqCp-150" value="Sahiptir" style="rhombus;whiteSpace=wrap;html=1;fontSize=17;labelBackgroundColor=none;fillColor=#182E3E;strokeColor=#FFFFFF;fontColor=#FFFFFF;" vertex="1" parent="1">
          <mxGeometry x="84" y="267" width="110" height="27" as="geometry" />
        </mxCell>
        <mxCell id="rgg1BvajTvkb6stmxqCp-152" style="edgeStyle=orthogonalEdgeStyle;rounded=0;orthogonalLoop=1;jettySize=auto;html=1;entryX=0.571;entryY=0.003;entryDx=0;entryDy=0;entryPerimeter=0;labelBackgroundColor=none;fontColor=default;strokeColor=#23445D;" edge="1" parent="1" source="rgg1BvajTvkb6stmxqCp-150" target="rgg1BvajTvkb6stmxqCp-42">
          <mxGeometry relative="1" as="geometry" />
        </mxCell>
        <mxCell id="rgg1BvajTvkb6stmxqCp-239" style="edgeStyle=orthogonalEdgeStyle;rounded=0;orthogonalLoop=1;jettySize=auto;html=1;entryX=1;entryY=0.25;entryDx=0;entryDy=0;labelBackgroundColor=none;fontColor=default;strokeColor=#23445D;" edge="1" parent="1" source="rgg1BvajTvkb6stmxqCp-153" target="rgg1BvajTvkb6stmxqCp-94">
          <mxGeometry relative="1" as="geometry" />
        </mxCell>
        <mxCell id="rgg1BvajTvkb6stmxqCp-153" value="Yapar" style="rhombus;whiteSpace=wrap;html=1;fontSize=16;labelBackgroundColor=none;fillColor=#182E3E;strokeColor=#FFFFFF;fontColor=#FFFFFF;" vertex="1" parent="1">
          <mxGeometry x="364" y="-19.999999999999993" width="110" height="27" as="geometry" />
        </mxCell>
        <mxCell id="rgg1BvajTvkb6stmxqCp-156" style="edgeStyle=orthogonalEdgeStyle;rounded=0;orthogonalLoop=1;jettySize=auto;html=1;entryX=0.157;entryY=1.003;entryDx=0;entryDy=0;entryPerimeter=0;strokeWidth=1;align=center;verticalAlign=middle;spacing=1;fontFamily=Helvetica;fontSize=10;fontColor=default;labelBackgroundColor=none;endArrow=classic;endSize=1;strokeColor=#23445D;" edge="1" parent="1" source="rgg1BvajTvkb6stmxqCp-97" target="rgg1BvajTvkb6stmxqCp-94">
          <mxGeometry relative="1" as="geometry" />
        </mxCell>
        <mxCell id="rgg1BvajTvkb6stmxqCp-158" value="Verir" style="rhombus;whiteSpace=wrap;html=1;fontSize=18;labelBackgroundColor=none;align=center;fillColor=#182E3E;strokeColor=#FFFFFF;fontColor=#FFFFFF;" vertex="1" parent="1">
          <mxGeometry x="580" y="184" width="110" height="27" as="geometry" />
        </mxCell>
        <mxCell id="rgg1BvajTvkb6stmxqCp-162" value="" style="edgeStyle=orthogonalEdgeStyle;rounded=0;orthogonalLoop=1;jettySize=auto;html=1;labelBackgroundColor=none;fontColor=default;strokeColor=#23445D;" edge="1" parent="1" source="rgg1BvajTvkb6stmxqCp-161" target="rgg1BvajTvkb6stmxqCp-42">
          <mxGeometry relative="1" as="geometry" />
        </mxCell>
        <mxCell id="rgg1BvajTvkb6stmxqCp-163" value="" style="edgeStyle=orthogonalEdgeStyle;rounded=0;orthogonalLoop=1;jettySize=auto;html=1;labelBackgroundColor=none;fontColor=default;strokeColor=#23445D;" edge="1" parent="1" source="rgg1BvajTvkb6stmxqCp-161" target="rgg1BvajTvkb6stmxqCp-118">
          <mxGeometry relative="1" as="geometry" />
        </mxCell>
        <mxCell id="rgg1BvajTvkb6stmxqCp-161" value="Aittir" style="rhombus;whiteSpace=wrap;html=1;fontSize=18;labelBackgroundColor=none;fillColor=#182E3E;strokeColor=#FFFFFF;fontColor=#FFFFFF;" vertex="1" parent="1">
          <mxGeometry x="186" y="586" width="110" height="27" as="geometry" />
        </mxCell>
        <mxCell id="rgg1BvajTvkb6stmxqCp-189" style="edgeStyle=orthogonalEdgeStyle;rounded=0;orthogonalLoop=1;jettySize=auto;html=1;entryX=0.628;entryY=0.977;entryDx=0;entryDy=0;entryPerimeter=0;labelBackgroundColor=none;fontColor=default;strokeColor=#23445D;" edge="1" parent="1" source="rgg1BvajTvkb6stmxqCp-265" target="rgg1BvajTvkb6stmxqCp-27">
          <mxGeometry relative="1" as="geometry">
            <mxPoint x="83" y="290" as="targetPoint" />
            <Array as="points" />
          </mxGeometry>
        </mxCell>
        <mxCell id="rgg1BvajTvkb6stmxqCp-212" style="edgeStyle=orthogonalEdgeStyle;rounded=0;orthogonalLoop=1;jettySize=auto;html=1;labelBackgroundColor=none;fontColor=default;entryX=0.096;entryY=0.053;entryDx=0;entryDy=0;entryPerimeter=0;strokeColor=#23445D;" edge="1" parent="1" source="rgg1BvajTvkb6stmxqCp-164" target="rgg1BvajTvkb6stmxqCp-118">
          <mxGeometry relative="1" as="geometry">
            <mxPoint x="-16" y="644" as="targetPoint" />
            <Array as="points">
              <mxPoint x="-140" y="556" />
              <mxPoint x="16" y="556" />
              <mxPoint x="16" y="624" />
              <mxPoint x="-16" y="624" />
              <mxPoint x="-16" y="648" />
              <mxPoint x="-13" y="648" />
            </Array>
          </mxGeometry>
        </mxCell>
        <mxCell id="rgg1BvajTvkb6stmxqCp-164" value="Aittir" style="rhombus;whiteSpace=wrap;html=1;fontSize=20;labelBackgroundColor=none;fillColor=#182E3E;strokeColor=#FFFFFF;fontColor=#FFFFFF;" vertex="1" parent="1">
          <mxGeometry x="-204" y="411" width="110" height="27" as="geometry" />
        </mxCell>
        <mxCell id="rgg1BvajTvkb6stmxqCp-240" style="edgeStyle=orthogonalEdgeStyle;rounded=0;orthogonalLoop=1;jettySize=auto;html=1;entryX=0;entryY=0.5;entryDx=0;entryDy=0;labelBackgroundColor=none;fontColor=default;strokeColor=#23445D;" edge="1" parent="1" source="rgg1BvajTvkb6stmxqCp-168" target="rgg1BvajTvkb6stmxqCp-83">
          <mxGeometry relative="1" as="geometry">
            <mxPoint x="944" y="296" as="targetPoint" />
          </mxGeometry>
        </mxCell>
        <mxCell id="rgg1BvajTvkb6stmxqCp-168" value="&lt;font style=&quot;font-size: 14px;&quot;&gt;Ödeme Yapar&lt;/font&gt;" style="rhombus;whiteSpace=wrap;html=1;fontSize=14;labelBackgroundColor=none;fillColor=#182E3E;strokeColor=#FFFFFF;fontColor=#FFFFFF;" vertex="1" parent="1">
          <mxGeometry x="704" y="288" width="120" height="33" as="geometry" />
        </mxCell>
        <mxCell id="rgg1BvajTvkb6stmxqCp-169" style="edgeStyle=orthogonalEdgeStyle;rounded=0;orthogonalLoop=1;jettySize=auto;html=1;entryX=0.876;entryY=0.014;entryDx=0;entryDy=0;entryPerimeter=0;labelBackgroundColor=none;fontColor=default;strokeWidth=1;align=center;verticalAlign=middle;spacing=1;fontFamily=Helvetica;fontSize=10;endArrow=classic;endSize=1;strokeColor=#23445D;" edge="1" parent="1" source="rgg1BvajTvkb6stmxqCp-168" target="rgg1BvajTvkb6stmxqCp-55">
          <mxGeometry relative="1" as="geometry" />
        </mxCell>
        <mxCell id="rgg1BvajTvkb6stmxqCp-173" style="edgeStyle=orthogonalEdgeStyle;rounded=0;orthogonalLoop=1;jettySize=auto;html=1;entryX=0;entryY=0.5;entryDx=0;entryDy=0;labelBackgroundColor=none;fontColor=default;strokeColor=#23445D;" edge="1" parent="1" source="rgg1BvajTvkb6stmxqCp-171" target="rgg1BvajTvkb6stmxqCp-131">
          <mxGeometry relative="1" as="geometry" />
        </mxCell>
        <mxCell id="rgg1BvajTvkb6stmxqCp-264" style="edgeStyle=orthogonalEdgeStyle;rounded=0;orthogonalLoop=1;jettySize=auto;html=1;entryX=1;entryY=0.75;entryDx=0;entryDy=0;labelBackgroundColor=none;fontColor=default;strokeColor=#23445D;" edge="1" parent="1" source="rgg1BvajTvkb6stmxqCp-171" target="rgg1BvajTvkb6stmxqCp-55">
          <mxGeometry relative="1" as="geometry">
            <mxPoint x="796" y="504" as="targetPoint" />
            <Array as="points">
              <mxPoint x="876" y="500" />
            </Array>
          </mxGeometry>
        </mxCell>
        <mxCell id="rgg1BvajTvkb6stmxqCp-171" value="Teslim Edilir" style="rhombus;whiteSpace=wrap;html=1;fontSize=14;labelBackgroundColor=none;fillColor=#182E3E;strokeColor=#FFFFFF;fontColor=#FFFFFF;" vertex="1" parent="1">
          <mxGeometry x="826" y="561" width="110" height="27" as="geometry" />
        </mxCell>
        <mxCell id="rgg1BvajTvkb6stmxqCp-191" value="İçerir" style="rhombus;whiteSpace=wrap;html=1;fontSize=21;labelBackgroundColor=none;fillColor=#182E3E;strokeColor=#FFFFFF;fontColor=#FFFFFF;" vertex="1" parent="1">
          <mxGeometry x="408" y="316" width="110" height="27" as="geometry" />
        </mxCell>
        <mxCell id="rgg1BvajTvkb6stmxqCp-192" style="edgeStyle=orthogonalEdgeStyle;rounded=0;orthogonalLoop=1;jettySize=auto;html=1;entryX=0.145;entryY=0.025;entryDx=0;entryDy=0;entryPerimeter=0;labelBackgroundColor=none;fontColor=default;strokeWidth=1;align=center;verticalAlign=middle;spacing=1;fontFamily=Helvetica;fontSize=11;endArrow=classic;endSize=1;strokeColor=#23445D;" edge="1" parent="1" source="rgg1BvajTvkb6stmxqCp-191" target="rgg1BvajTvkb6stmxqCp-55">
          <mxGeometry relative="1" as="geometry" />
        </mxCell>
        <mxCell id="rgg1BvajTvkb6stmxqCp-193" style="edgeStyle=orthogonalEdgeStyle;rounded=0;orthogonalLoop=1;jettySize=auto;html=1;entryX=0.911;entryY=0.069;entryDx=0;entryDy=0;entryPerimeter=0;labelBackgroundColor=none;fontColor=default;strokeColor=#23445D;" edge="1" parent="1" source="rgg1BvajTvkb6stmxqCp-191" target="rgg1BvajTvkb6stmxqCp-42">
          <mxGeometry relative="1" as="geometry" />
        </mxCell>
        <mxCell id="rgg1BvajTvkb6stmxqCp-213" style="edgeStyle=orthogonalEdgeStyle;rounded=0;orthogonalLoop=1;jettySize=auto;html=1;entryX=0.359;entryY=0.9;entryDx=0;entryDy=0;entryPerimeter=0;labelBackgroundColor=none;fontColor=default;strokeColor=#23445D;" edge="1" parent="1" source="rgg1BvajTvkb6stmxqCp-120" target="rgg1BvajTvkb6stmxqCp-118">
          <mxGeometry relative="1" as="geometry" />
        </mxCell>
        <mxCell id="rgg1BvajTvkb6stmxqCp-223" value="1" style="text;align=center;html=1;verticalAlign=middle;whiteSpace=wrap;rounded=0;labelBackgroundColor=none;fontSize=19;fontColor=#FFFFFF;" vertex="1" parent="1">
          <mxGeometry x="548" y="88" width="110" height="27" as="geometry" />
        </mxCell>
        <mxCell id="rgg1BvajTvkb6stmxqCp-225" value="N" style="text;strokeColor=none;align=center;fillColor=none;html=1;verticalAlign=middle;whiteSpace=wrap;rounded=0;labelBackgroundColor=none;fontSize=19;fontColor=#FFFFFF;" vertex="1" parent="1">
          <mxGeometry x="204" y="359" width="110" height="27" as="geometry" />
        </mxCell>
        <mxCell id="rgg1BvajTvkb6stmxqCp-226" value="1" style="text;strokeColor=none;align=center;fillColor=none;html=1;verticalAlign=middle;whiteSpace=wrap;rounded=0;labelBackgroundColor=none;fontSize=22;fontColor=#FFFFFF;" vertex="1" parent="1">
          <mxGeometry x="-36" y="218" width="110" height="27" as="geometry" />
        </mxCell>
        <mxCell id="rgg1BvajTvkb6stmxqCp-227" style="edgeStyle=orthogonalEdgeStyle;rounded=0;orthogonalLoop=1;jettySize=auto;html=1;entryX=0.058;entryY=0.992;entryDx=0;entryDy=0;entryPerimeter=0;strokeWidth=1;align=center;verticalAlign=middle;spacing=1;fontFamily=Helvetica;fontSize=10;fontColor=default;labelBackgroundColor=none;endArrow=classic;endSize=1;strokeColor=#23445D;" edge="1" parent="1" source="rgg1BvajTvkb6stmxqCp-62" target="rgg1BvajTvkb6stmxqCp-55">
          <mxGeometry relative="1" as="geometry" />
        </mxCell>
        <mxCell id="rgg1BvajTvkb6stmxqCp-232" value="N" style="text;strokeColor=none;align=center;fillColor=none;html=1;verticalAlign=middle;whiteSpace=wrap;rounded=0;labelBackgroundColor=none;fontSize=22;fontColor=#FFFFFF;" vertex="1" parent="1">
          <mxGeometry x="564" y="777" width="110" height="27" as="geometry" />
        </mxCell>
        <mxCell id="rgg1BvajTvkb6stmxqCp-234" value="N" style="text;strokeColor=none;align=center;fillColor=none;html=1;verticalAlign=middle;whiteSpace=wrap;rounded=0;labelBackgroundColor=none;fontSize=16;fontColor=#FFFFFF;" vertex="1" parent="1">
          <mxGeometry x="216" y="8" width="110" height="27" as="geometry" />
        </mxCell>
        <mxCell id="rgg1BvajTvkb6stmxqCp-236" value="1" style="text;strokeColor=none;align=center;fillColor=none;html=1;verticalAlign=middle;whiteSpace=wrap;rounded=0;labelBackgroundColor=none;fontSize=20;fontColor=#FFFFFF;" vertex="1" parent="1">
          <mxGeometry x="916" y="291" width="110" height="27" as="geometry" />
        </mxCell>
        <mxCell id="rgg1BvajTvkb6stmxqCp-238" value="1" style="text;strokeColor=none;align=center;fillColor=none;html=1;verticalAlign=middle;whiteSpace=wrap;rounded=0;labelBackgroundColor=none;fontSize=19;fontColor=#FFFFFF;" vertex="1" parent="1">
          <mxGeometry x="944" y="572" width="110" height="27" as="geometry" />
        </mxCell>
        <mxCell id="rgg1BvajTvkb6stmxqCp-253" style="edgeStyle=orthogonalEdgeStyle;rounded=0;orthogonalLoop=1;jettySize=auto;html=1;entryX=0.323;entryY=-0.034;entryDx=0;entryDy=0;entryPerimeter=0;labelBackgroundColor=none;fontColor=default;strokeColor=#23445D;" edge="1" parent="1" source="rgg1BvajTvkb6stmxqCp-153" target="rgg1BvajTvkb6stmxqCp-10">
          <mxGeometry relative="1" as="geometry" />
        </mxCell>
        <mxCell id="rgg1BvajTvkb6stmxqCp-254" value="1" style="text;strokeColor=none;align=center;fillColor=none;html=1;verticalAlign=middle;whiteSpace=wrap;rounded=0;labelBackgroundColor=none;fontSize=19;fontColor=#FFFFFF;" vertex="1" parent="1">
          <mxGeometry x="504" y="37.96" width="110" height="27" as="geometry" />
        </mxCell>
        <mxCell id="rgg1BvajTvkb6stmxqCp-255" value="N" style="text;strokeColor=none;align=center;fillColor=none;html=1;verticalAlign=middle;whiteSpace=wrap;rounded=0;fontSize=18;labelBackgroundColor=none;fontColor=#FFFFFF;" vertex="1" parent="1">
          <mxGeometry x="596" y="448" width="60" height="32" as="geometry" />
        </mxCell>
        <mxCell id="rgg1BvajTvkb6stmxqCp-258" style="edgeStyle=orthogonalEdgeStyle;rounded=0;orthogonalLoop=1;jettySize=auto;html=1;entryX=0.591;entryY=0.029;entryDx=0;entryDy=0;entryPerimeter=0;labelBackgroundColor=none;fontColor=default;strokeColor=#23445D;" edge="1" parent="1" source="rgg1BvajTvkb6stmxqCp-158" target="rgg1BvajTvkb6stmxqCp-55">
          <mxGeometry relative="1" as="geometry" />
        </mxCell>
        <mxCell id="rgg1BvajTvkb6stmxqCp-259" value="1" style="text;strokeColor=none;align=center;fillColor=none;html=1;verticalAlign=middle;whiteSpace=wrap;rounded=0;fontSize=18;labelBackgroundColor=none;fontColor=#FFFFFF;" vertex="1" parent="1">
          <mxGeometry x="620" y="500" width="60" height="30" as="geometry" />
        </mxCell>
        <mxCell id="rgg1BvajTvkb6stmxqCp-260" value="1" style="text;strokeColor=none;align=center;fillColor=none;html=1;verticalAlign=middle;whiteSpace=wrap;rounded=0;fontSize=22;labelBackgroundColor=none;fontColor=#FFFFFF;" vertex="1" parent="1">
          <mxGeometry x="16" y="629" width="60" height="30" as="geometry" />
        </mxCell>
        <mxCell id="rgg1BvajTvkb6stmxqCp-261" value="1" style="text;strokeColor=none;align=center;fillColor=none;html=1;verticalAlign=middle;whiteSpace=wrap;rounded=0;fontSize=18;labelBackgroundColor=none;fontColor=#FFFFFF;" vertex="1" parent="1">
          <mxGeometry x="648" y="450" width="60" height="30" as="geometry" />
        </mxCell>
        <mxCell id="rgg1BvajTvkb6stmxqCp-262" value="1" style="text;strokeColor=none;align=center;fillColor=none;html=1;verticalAlign=middle;whiteSpace=wrap;rounded=0;fontSize=18;labelBackgroundColor=none;fontColor=#FFFFFF;" vertex="1" parent="1">
          <mxGeometry x="668" y="494.5" width="60" height="30" as="geometry" />
        </mxCell>
        <mxCell id="rgg1BvajTvkb6stmxqCp-266" value="" style="edgeStyle=orthogonalEdgeStyle;rounded=0;orthogonalLoop=1;jettySize=auto;html=1;entryX=0.628;entryY=0.977;entryDx=0;entryDy=0;entryPerimeter=0;labelBackgroundColor=none;fontColor=default;strokeColor=#23445D;" edge="1" parent="1" source="rgg1BvajTvkb6stmxqCp-164" target="rgg1BvajTvkb6stmxqCp-265">
          <mxGeometry relative="1" as="geometry">
            <mxPoint x="-39" y="217" as="targetPoint" />
            <mxPoint x="-149" y="411" as="sourcePoint" />
            <Array as="points">
              <mxPoint x="-149" y="326" />
              <mxPoint x="-39" y="326" />
            </Array>
          </mxGeometry>
        </mxCell>
        <mxCell id="rgg1BvajTvkb6stmxqCp-265" value="N" style="text;strokeColor=none;align=center;fillColor=none;html=1;verticalAlign=middle;whiteSpace=wrap;rounded=0;labelBackgroundColor=none;fontSize=19;fontColor=#FFFFFF;" vertex="1" parent="1">
          <mxGeometry x="-108" y="224" width="110" height="27" as="geometry" />
        </mxCell>
        <mxCell id="rgg1BvajTvkb6stmxqCp-267" value="1" style="text;strokeColor=none;align=center;fillColor=none;html=1;verticalAlign=middle;whiteSpace=wrap;rounded=0;fontSize=22;labelBackgroundColor=none;fontColor=#FFFFFF;" vertex="1" parent="1">
          <mxGeometry x="-66" y="629" width="60" height="30" as="geometry" />
        </mxCell>
        <mxCell id="rgg1BvajTvkb6stmxqCp-268" value="N" style="text;strokeColor=none;align=center;fillColor=none;html=1;verticalAlign=middle;whiteSpace=wrap;rounded=0;labelBackgroundColor=none;fontSize=19;fontColor=#FFFFFF;" vertex="1" parent="1">
          <mxGeometry x="204" y="411" width="110" height="27" as="geometry" />
        </mxCell>
      </root>
    </mxGraphModel>
  </diagram>
</mxfile>
